  0
SECTION
  2
HEADER
  9
$ACADVER
  1
AC1014
  9
$HANDSEED
  5
FFFF
  9
$MEASUREMENT
 70
     1
  0
ENDSEC
  0
SECTION
  2
TABLES
  0
TABLE
  2
VPORT
  5
8
330
0
100
AcDbSymbolTable
 70
     4
  0
VPORT
  5
2E
330
8
100
AcDbSymbolTableRecord
100
AcDbViewportTableRecord
  2
*ACTIVE
 70
     0
 10
0.0
 20
0.0
 11
1.0
 21
1.0
 12
210.0
 22
148.5
 13
0.0
 23
0.0
 14
10.0
 24
10.0
 15
10.0
 25
10.0
 16
0.0
 26
0.0
 36
1.0
 17
0.0
 27
0.0
 37
0.0
 40
341.0
 41
1.24
 42
50.0
 43
0.0
 44
0.0
 50
0.0
 51
0.0
 71
     0
 72
   100
 73
     1
 74
     3
 75
     0
 76
     0
 77
     0
 78
     0
  0
ENDTAB
  0
TABLE
  2
LTYPE
  5
5
330
0
100
AcDbSymbolTable
 70
     1
  0
LTYPE
  5
14
330
5
100
AcDbSymbolTableRecord
100
AcDbLinetypeTableRecord
  2
BYBLOCK
 70
     0
  3

 72
    65
 73
     0
 40
0.0
  0
LTYPE
  5
15
330
5
100
AcDbSymbolTableRecord
100
AcDbLinetypeTableRecord
  2
BYLAYER
 70
     0
  3

 72
    65
 73
     0
 40
0.0
  0
LTYPE
  5
16
330
5
100
AcDbSymbolTableRecord
100
AcDbLinetypeTableRecord
  2
CONTINUOUS
 70
     0
  3
Solid line
 72
    65
 73
     0
 40
0.0
  0
ENDTAB
  0
TABLE
  2
LAYER
  5
2
100
AcDbSymbolTable
 70
2
  0
LAYER
  5
50
100
AcDbSymbolTableRecord
100
AcDbLayerTableRecord
  2
0
 70
0
  6
CONTINUOUS
  0
LAYER
  5
51
100
AcDbSymbolTableRecord
100
AcDbLayerTableRecord
  2
Layer_2
 70
0
  6
CONTINUOUS
  0
ENDTAB
  0
TABLE
  2
STYLE
  5
3
330
0
100
AcDbSymbolTable
 70
     1
  0
STYLE
  5
11
330
3
100
AcDbSymbolTableRecord
100
AcDbTextStyleTableRecord
  2
STANDARD
 70
     0
 40
0.0
 41
1.0
 50
0.0
 71
     0
 42
2.5
  3
txt
  4

  0
ENDTAB
  0
TABLE
  2
VIEW
  5
6
330
0
100
AcDbSymbolTable
 70
     0
  0
ENDTAB
  0
TABLE
  2
UCS
  5
7
330
0
100
AcDbSymbolTable
 70
     0
  0
ENDTAB
  0
TABLE
  2
APPID
  5
9
330
0
100
AcDbSymbolTable
 70
     2
  0
APPID
  5
12
330
9
100
AcDbSymbolTableRecord
100
AcDbRegAppTableRecord
  2
ACAD
 70
     0
  0
ENDTAB
  0
TABLE
  2
DIMSTYLE
  5
A
330
0
100
AcDbSymbolTable
 70
     1
  0
DIMSTYLE
105
27
330
A
100
AcDbSymbolTableRecord
100
AcDbDimStyleTableRecord
  2
ISO-25
 70
     0
  3

  4

  5

  6

  7

 40
1.0
 41
2.5
 42
0.625
 43
3.75
 44
1.25
 45
0.0
 46
0.0
 47
0.0
 48
0.0
140
2.5
141
2.5
142
0.0
143
0.03937007874016
144
1.0
145
0.0
146
1.0
147
0.625
 71
     0
 72
     0
 73
     0
 74
     0
 75
     0
 76
     0
 77
     1
 78
     8
170
     0
171
     3
172
     1
173
     0
174
     0
175
     0
176
     0
177
     0
178
     0
270
     2
271
     2
272
     2
273
     2
274
     3
340
11
275
     0
280
     0
281
     0
282
     0
283
     0
284
     8
285
     0
286
     0
287
     3
288
     0
  0
ENDTAB
  0
TABLE
  2
BLOCK_RECORD
  5
1
330
0
100
AcDbSymbolTable
 70
     1
  0
BLOCK_RECORD
  5
1F
330
1
100
AcDbSymbolTableRecord
100
AcDbBlockTableRecord
  2
*MODEL_SPACE
  0
BLOCK_RECORD
  5
1B
330
1
100
AcDbSymbolTableRecord
100
AcDbBlockTableRecord
  2
*PAPER_SPACE
  0
ENDTAB
  0
ENDSEC
  0
SECTION
  2
BLOCKS
  0
BLOCK
  5
20
330
1F
100
AcDbEntity
  8
0
100
AcDbBlockBegin
  2
*MODEL_SPACE
 70
     0
 10
0.0
 20
0.0
 30
0.0
  3
*MODEL_SPACE
  1

  0
ENDBLK
  5
21
330
1F
100
AcDbEntity
  8
0
100
AcDbBlockEnd
  0
BLOCK
  5
1C
330
1B
100
AcDbEntity
 67
     1
  8
0
100
AcDbBlockBegin
  2
*PAPER_SPACE
  1

  0
ENDBLK
  5
1D
330
1B
100
AcDbEntity
 67
     1
  8
0
100
AcDbBlockEnd
  0
ENDSEC
  0
SECTION
  2
ENTITIES
  0
LWPOLYLINE
  5
100
100
AcDbEntity
  8
Layer_2
 62
7
100
AcDbPolyline
 90
65
 70
1
 10
13.335241
 20
0.000000
 30
0.0
 10
-11.477946
 20
0.000000
 30
0.0
 10
-17.745535
 20
-11.383880
 30
0.0
 10
-29.531251
 20
-34.419600
 30
0.0
 10
-33.147320
 20
-43.660658
 30
0.0
 10
-34.419643
 20
-51.294586
 30
0.0
 10
-34.419643
 20
-56.919600
 30
0.0
 10
-33.816966
 20
-60.334809
 30
0.0
 10
-31.941964
 20
-66.294624
 30
0.0
 10
-28.526786
 20
-72.120501
 30
0.0
 10
-24.107143
 20
-76.874967
 30
0.0
 10
-17.946429
 20
-81.696416
 30
0.0
 10
-4.151786
 20
-90.669628
 30
0.0
 10
2.276786
 20
-95.558003
 30
0.0
 10
4.955357
 20
-98.437465
 30
0.0
 10
7.165179
 20
-102.321411
 30
0.0
 10
7.901786
 20
-108.616054
 30
0.0
 10
7.834823
 20
-114.776759
 30
0.0
 10
7.232144
 20
-118.325877
 30
0.0
 10
5.758930
 20
-121.473184
 30
0.0
 10
3.482144
 20
-123.883909
 30
0.0
 10
-0.535713
 20
-126.227650
 30
0.0
 10
-5.624999
 20
-127.499981
 30
0.0
 10
-11.651784
 20
-128.102655
 30
0.0
 10
-22.767856
 20
-128.303631
 30
0.0
 10
-26.183034
 20
-129.375071
 30
0.0
 10
-28.325892
 20
-131.049156
 30
0.0
 10
-30.066965
 20
-134.263446
 30
0.0
 10
-30.602679
 20
-136.272387
 30
0.0
 10
-30.602679
 20
-226.540233
 30
0.0
 10
37.500001
 20
-226.540233
 30
0.0
 10
37.232155
 20
-220.245591
 30
0.0
 10
35.558048
 20
-213.482211
 30
0.0
 10
32.477689
 20
-207.455414
 30
0.0
 10
28.660725
 20
-203.973279
 30
0.0
 10
21.227691
 20
-201.227754
 30
0.0
 10
13.325906
 20
-198.817030
 30
0.0
 10
7.031263
 20
-195.267912
 30
0.0
 10
3.616084
 20
-191.183102
 30
0.0
 10
1.540191
 20
-186.093808
 30
0.0
 10
1.071441
 20
-181.540233
 30
0.0
 10
1.071441
 20
-173.906306
 30
0.0
 10
1.674120
 20
-167.611663
 30
0.0
 10
2.812513
 20
-163.794699
 30
0.0
 10
6.227691
 20
-160.513455
 30
0.0
 10
10.446441
 20
-158.035776
 30
0.0
 10
26.785727
 20
-150.267912
 30
0.0
 10
32.075904
 20
-146.584885
 30
0.0
 10
35.357153
 20
-143.035767
 30
0.0
 10
37.299118
 20
-138.482192
 30
0.0
 10
38.169655
 20
-131.517921
 30
0.0
 10
38.169655
 20
-83.102740
 30
0.0
 10
37.700904
 20
-75.401858
 30
0.0
 10
36.026796
 20
-71.116129
 30
0.0
 10
32.142869
 20
-67.567039
 30
0.0
 10
25.580370
 20
-65.089361
 30
0.0
 10
12.991084
 20
-62.075962
 30
0.0
 10
8.102691
 20
-60.200957
 30
0.0
 10
4.687513
 20
-56.785776
 30
0.0
 10
3.214299
 20
-52.767921
 30
0.0
 10
3.616084
 20
-44.799165
 30
0.0
 10
6.093763
 20
-36.026844
 30
0.0
 10
10.245548
 20
-23.973279
 30
0.0
 10
12.924120
 20
-14.531301
 30
0.0
 10
13.727691
 20
-6.562573
 30
0.0
  0
ENDSEC
  0
SECTION
  2
OBJECTS
  0
DICTIONARY
  5
C
330
0
100
AcDbDictionary
  3
ACAD_GROUP
350
D
  3
ACAD_MLINESTYLE
350
17
  0
DICTIONARY
  5
D
330
C
100
AcDbDictionary
  0
DICTIONARY
  5
1A
330
C
100
AcDbDictionary
  0
DICTIONARY
  5
17
330
C
100
AcDbDictionary
  3
STANDARD
350
18
  0
DICTIONARY
  5
19
330
C
100
AcDbDictionary
  0
ENDSEC
  0
EOF
